<svg width="62" height="64" viewBox="0 0 62 64" fill="none" xmlns="http://www.w3.org/2000/svg">
<path d="M6.46155 9.90942C6.46155 9.90942 6.46747 9.9272 6.4734 9.93905C6.55044 9.74941 6.50303 9.82052 6.46155 9.90942Z" fill="#C8102E"/>
<path d="M58.2645 0.93677C58.2645 0.93677 56.9251 8.08405 54.922 10.1227C54.0923 6.59652 46.6072 -0.0588712 30.8429 0.000393156C15.0786 0.0537311 8.38171 5.4053 6.4734 9.9331C6.37857 10.1583 6.4082 10.0101 6.46154 9.90347C5.25255 8.23221 4.35766 4.21409 4.50582 0.486361C-4.27716 15.824 1.80929 28.0443 5.73852 35.1145C8.90916 40.8158 16.8684 51.1278 29.7169 62.9688L30.837 64L31.963 62.9688C40.6156 55.0511 51.6388 43.1152 56.6348 33.3544C61.5181 23.8187 64.0724 13.2934 58.2645 0.930844" fill="#C8102E"/>
<path d="M58.5372 6.11643C57.4052 9.78489 55.4969 12.5822 53.6419 14.4194C54.4183 9.90342 51.4965 5.58897 42.8973 3.30729C45.9613 6.67351 46.9628 9.9212 46.2398 11.9006C44.0885 7.5447 39.6437 2.11608 30.8488 2.13979C22.0777 2.16349 17.6981 6.8513 15.5112 11.2665C14.3733 9.73748 14.8415 7.18911 18.3737 3.30729C9.25883 5.73121 6.53267 10.7568 7.80686 15.2313C7.84834 15.3794 7.89575 15.5276 7.95502 15.6758C5.95188 13.0978 4.03172 9.30485 3.53982 6.06901C-0.300509 17.9456 3.11312 26.9716 7.19051 34.3203C11.4931 42.0603 21.3902 53.0479 30.8429 61.7597C40.5801 52.8523 50.7143 41.2898 55.1591 32.6135C59.9654 23.226 60.9374 14.4134 58.5372 6.12828" fill="#231F20"/>
<path d="M17.2595 34.8538C15.286 35.0612 12.1568 31.1912 11.2916 20.8437C6.97711 20.1977 3.96055 13.5127 3.96055 13.5127C3.09529 24.9448 9.55511 39.6364 30.8488 58.8262C26.5995 53.1961 21.2539 46.1733 19.0374 41.9003C18.6818 40.9758 17.2654 34.8538 17.2654 34.8538" fill="#003DA5"/>
<path d="M51.4016 18.6864C50.5364 35.073 44.7403 35.0612 44.7403 35.0612C44.2544 37.5147 44.0351 40.5076 42.7668 42.244C39.7443 45.9777 35.098 53.1902 30.8488 58.8203C53.4996 38.623 58.8571 21.9282 57.814 12.3985C56.6288 14.5498 54.2997 17.4063 51.4076 18.6805" fill="#003DA5"/>
<path d="M31.9393 37.0703V29.1585L33.9306 34.9723L31.9393 37.0703Z" fill="#003DA5"/>
<path d="M34.6596 28.4888L34.9915 30.0652L40.7816 25.3715L34.6596 28.4888Z" fill="#C8102E"/>
<path d="M27.5004 28.4888L27.1685 30.0652L21.3784 25.3715L27.5004 28.4888Z" fill="#C8102E"/>
<path d="M42.3995 14.5439C42.7314 14.455 43.0692 14.3424 43.4011 14.212C41.3565 9.76125 37.7828 7.75812 37.7828 7.75812C40.4082 10.0813 41.801 13.0801 42.3995 14.538" fill="#0072CE"/>
<path d="M26.9019 25.3122L28.4427 26.9123L28.6324 20.4703L26.9019 25.3122Z" fill="#003DA5"/>
<path d="M14.2015 6.79211C4.3162 13.4831 14.0059 19.7829 19.1441 20.2688C21.4792 20.494 22.0125 19.9132 22.4392 18.9117C19.3931 18.6865 6.82901 15.5218 14.1956 6.79211" fill="#003DA5"/>
<path d="M47.0636 6.79211C54.4301 15.5218 41.872 18.6865 38.8258 18.9117C39.2525 19.9132 39.7859 20.494 42.1209 20.2688C42.6958 20.2155 43.3359 20.0851 43.9937 19.8895C43.9937 19.9488 44.0055 20.0021 44.0115 20.0614L36.1174 24.1981L36.5679 25.4722L44.0411 22.1653L42.8143 26.0767C42.8143 26.0767 36.8523 33.8285 36.0997 39.346L37.4213 39.749L38.5236 41.8233L40.7341 39.0616L42.3402 35.9561C42.3402 35.9561 39.9222 36.3176 39.5074 36.4599C42.038 33.3722 44.2189 31.1557 44.4441 30.0652L44.5923 31.9735C47.3006 33.8819 49.0193 21.2289 49.0193 21.2289L43.9878 28.4355C43.97 28.394 43.9463 28.3525 43.9285 28.311L46.0146 21.6852C45.9672 20.8555 45.8309 20.0555 45.6294 19.291C50.3942 17.193 54.928 12.1141 47.0636 6.79211Z" fill="#0072CE"/>
<path d="M33.8891 38.943C33.8891 38.943 34.7899 39.1148 36.1056 39.3519C36.8523 33.8344 42.8143 26.0826 42.8143 26.0826C37.6998 28.8443 33.8891 38.943 33.8891 38.943Z" fill="#003DA5"/>
<path d="M38.5355 41.8292L37.4272 39.7549L36.1056 39.346L37.202 42.1136L35.2819 41.1121L33.0476 41.0824L32.449 42.7478L34.8315 42.3329L35.0093 47.7023L39.7089 42.3744C41.2794 40.7743 41.7358 38.6882 42.3462 35.962L40.7401 39.0675L38.5296 41.8292H38.5355Z" fill="#003DA5"/>
<path d="M36.5678 25.4722L36.1174 24.198L34.7129 24.9388L33.1127 20.4703L33.3083 26.9123L36.5678 25.4722Z" fill="#003DA5"/>
<path d="M34.2565 62.3109V62.1687H34.9854V62.3109H34.7069V63.028H34.535V62.3109H34.2565ZM35.3825 62.1687L35.6018 62.785L35.821 62.1687H36.07V63.028H35.9099V62.3346L35.6729 63.028H35.5307L35.2936 62.3346V63.028H35.1336V62.1687H35.3825Z" fill="#231F20"/>
</svg>
