<?xml version="1.0" encoding="UTF-8" standalone="no"?>
<!-- Created with Inkscape (http://www.inkscape.org/) -->

<svg
   width="210mm"
   height="297mm"
   viewBox="0 0 210 297"
   version="1.1"
   id="svg1"
   xml:space="preserve"
   inkscape:version="1.4.2 (f4327f4, 2025-05-13)"
   sodipodi:docname="lanl.svg"
   xmlns:inkscape="http://www.inkscape.org/namespaces/inkscape"
   xmlns:sodipodi="http://sodipodi.sourceforge.net/DTD/sodipodi-0.dtd"
   xmlns="http://www.w3.org/2000/svg"
   xmlns:svg="http://www.w3.org/2000/svg"><sodipodi:namedview
     id="namedview1"
     pagecolor="#ffffff"
     bordercolor="#000000"
     borderopacity="0.25"
     inkscape:showpageshadow="2"
     inkscape:pageopacity="0.0"
     inkscape:pagecheckerboard="0"
     inkscape:deskcolor="#d1d1d1"
     inkscape:document-units="mm"
     inkscape:zoom="4.64"
     inkscape:cx="397.41379"
     inkscape:cy="220.15086"
     inkscape:window-width="1920"
     inkscape:window-height="1009"
     inkscape:window-x="-8"
     inkscape:window-y="-8"
     inkscape:window-maximized="1"
     inkscape:current-layer="layer1" /><defs
     id="defs1"><clipPath
       clipPathUnits="userSpaceOnUse"
       id="clipPath3"><path
         style="opacity:0.333333;fill:#cc3434;fill-opacity:1;stroke-width:0.909801"
         id="path3"
         sodipodi:type="arc"
         sodipodi:cx="31.849758"
         sodipodi:cy="31.027981"
         sodipodi:rx="32.012611"
         sodipodi:ry="32.012611"
         sodipodi:start="0.305917"
         sodipodi:end="0.28370713"
         sodipodi:arc-type="arc"
         d="M 62.376062,40.669146 A 32.012611,32.012611 0 0 1 22.378237,61.607346 32.012611,32.012611 0 0 1 1.2182744,21.726396 32.012611,32.012611 0 0 1 40.981121,0.34532271 32.012611,32.012611 0 0 1 62.582645,39.988839"
         sodipodi:open="true" /></clipPath></defs><g
     inkscape:label="Layer 1"
     inkscape:groupmode="layer"
     id="layer1"
     style="display:inline"><path
       style="opacity:0;fill:#000000;fill-opacity:1;stroke-width:0.266428"
       id="path2"
       sodipodi:type="arc"
       sodipodi:cx="107.59399"
       sodipodi:cy="113.95294"
       sodipodi:rx="46.8293"
       sodipodi:ry="44.230213"
       sodipodi:start="0.41064107"
       sodipodi:end="0.28370713"
       sodipodi:open="true"
       sodipodi:arc-type="arc"
       d="M 150.53014,131.60952 A 46.8293,44.230213 0 0 1 90.271559,155.04587 46.8293,44.230213 0 0 1 63.558618,98.903972 46.8293,44.230213 0 0 1 122.12209,71.905057 46.8293,44.230213 0 0 1 152.55125,126.33371" /><g
       id="g2"
       transform="matrix(0.56709253,0,0,0.5445697,88.751985,39.191509)"
       style="display:inline;opacity:1"
       inkscape:label="g2"><g
         id="deeditor_bgCarrier"
         stroke-width="0"
         clip-path="url(#clipPath3)"
         style="display:inline;opacity:1"
         transform="matrix(1.0421701,0,0,1.0041774,0.01773934,-0.37351889)"><rect
           id="dee_c_e"
           x="3.2517929"
           y="-0.60579991"
           width="59.207905"
           height="60.072647"
           rx="31.577547"
           fill="#ffffff"
           strokewidth="0"
           style="display:none;opacity:0.625418;fill:#808080;stroke-width:0" /></g><g
         fill="#000f7e"
         id="g1"
         transform="matrix(0.96391264,0.00438074,-0.00410336,0.94632145,3.5618585,-1.0916171)"
         style="display:inline;opacity:1;stroke-width:0.999861;stroke-dasharray:none"><path
           d="m 20.702,2.069 a 32.03,32.03 0 0 1 35.839,9.344 C 56.179,11.367 52.014,10.913 44.922,13.12 35.071,4.65 26.548,2.199 20.702,2.069 m 9.938,48.94 a 59,59 0 0 1 -9.763,-7.926 66,66 0 0 1 -5.508,-6.2 c -5.223,6.33 -7.242,12.065 -5.41,14.821 2.251,3.377 10.371,3.593 20.682,-0.691 z M 41.84,14.186 C 30.999,6.276 18.47,2.702 13.033,8.158 c -3.412,3.423 -3.975,11.849 3,22.722 A 77.6,77.6 0 0 1 27.49,21.733 72.7,72.7 0 0 1 41.837,14.186 Z m -28.65,19.7 C 6.51,24.003 5.962,15.913 6.759,12.375 A 32.01,32.01 0 0 0 5.604,50.135 C 5.334,47.648 6.477,41.559 13.186,33.882 Z M 58.334,13.751 C 58.076,13.703 54.386,13.083 47.387,15.34 q 0.782,0.739 1.575,1.523 a 36.4,36.4 0 0 1 6.874,9.194 0.835,0.835 0 0 1 -0.327,1.134 0.845,0.845 0 0 1 -1.136,-0.327 43.5,43.5 0 0 0 -5.621,-6.78 60,60 0 0 0 -4.155,-3.754 79,79 0 0 0 -15.044,8.04 69,69 0 0 0 -11.468,9.479 71,71 0 0 0 6.941,7.97 56.6,56.6 0 0 0 9.272,7.528 74,74 0 0 0 11.464,-7.142 3.833,3.833 0 1 1 1.814,1.575 97,97 0 0 1 -10.634,7.147 c 6.127,3.39 12.184,4.853 17.32,4.175 a 32.006,32.006 0 0 0 4.072,-41.35 z m -24.781,39 c -10.1,5.092 -17.34,5.54 -21.279,4.5 A 32.02,32.02 0 0 0 51.18,57.738 C 48.553,57.76 41.876,57.313 33.55,52.743 Z"
           fill="#000f7e"
           id="path1"
           style="stroke-width:0.999861;stroke-dasharray:none" /></g></g></g></svg>
