<svg viewBox="0 0 68.899307 60.476122448979595" xmlns="http://www.w3.org/2000/svg" style="max-height: 500px" width="68.899307" height="60.476122448979595"><g fill="#fff" data-name="Group 1033"><path d="M191.897 7.916h6.819V39.73h-6.819zm29.679 6.679h6.68v25.092h-6.68V35.6c-1.23 2.9-4.482 4.7-8 4.7-6.24 0-11.161-4.7-11.161-13.139s4.878-13.05 11.118-13.05c3.558 0 6.767 1.757 8.04 4.746zm.22 12.568c0-4.7-2.637-7.515-6.372-7.515-3.691 0-6.328 2.769-6.328 7.515 0 4.79 2.637 7.558 6.372 7.558 3.691 0 6.328-2.812 6.328-7.556zm41.44-13.05c-4.7 0-7.646 2.328-8.833 5.36-1.362-3.91-3.471-5.36-7.558-5.36-3.558 0-6.415 1.8-7.293 4.613v-4.13h-6.68v25.136h6.68V27.338c0-5.317 1.449-7.557 4.92-7.557 3.384 0 4.614 1.889 4.614 7.338V39.73h6.679V26.855c0-5.01 1.407-7.119 4.921-7.119 3.429 0 4.746 2.022 4.746 7.338V39.73h6.68V26.46c0-8.745-2.593-12.348-8.876-12.348zm38.247 13.052c0 9.14-6.37 13.139-12.962 13.139s-13.007-4-13.007-13.139c0-9.052 6.415-13.05 13.007-13.05 6.543-.003 12.962 3.996 12.962 13.05zm-6.635 0c0-4.7-2.637-7.515-6.372-7.515-3.69 0-6.327 2.769-6.327 7.515 0 4.79 2.637 7.558 6.372 7.558s6.323-2.814 6.323-7.558zm15.785-5.712c0-1.669 1.625-2.637 4.394-2.637a5.145 5.145 0 014.921 2.725l5.976-1.055c-1.23-3.912-5.888-6.328-11.073-6.328-6.24 0-10.722 2.989-10.81 7.515-.087 10.061 15.775 5.976 15.775 10.986 0 1.757-1.714 2.769-4.7 2.769-2.855 0-5.008-1.143-5.931-3.121l-6.063 1.01c1.23 4.087 5.712 6.855 11.951 6.855 7.032 0 11.47-3.119 11.47-8.129-.006-10.065-15.913-5.583-15.913-10.593zM177.149 7.916l12.655 31.814h-7.338l-2.538-6.97h-12.589l-2.538 6.97h-7.294l12.611-31.814zm.923 19.748l-4.437-12.19-4.439 12.19zM76.412 39.73h18.719v-6.2H83.356V7.916h-6.944zm32.954.571c6.592 0 12.962-4 12.962-13.139 0-9.052-6.415-13.05-12.962-13.05-6.592 0-13.007 4-13.007 13.05.001 9.141 6.416 13.139 13.007 13.139zm0-5.581c-3.735 0-6.372-2.769-6.372-7.558 0-4.746 2.637-7.515 6.328-7.515 3.735 0 6.372 2.813 6.372 7.515.001 4.747-2.593 7.559-6.328 7.559zm26.55 5.449c7.032 0 11.47-3.119 11.47-8.129 0-10.063-15.907-5.581-15.907-10.59 0-1.669 1.625-2.637 4.394-2.637a5.148 5.148 0 014.923 2.725l5.975-1.055c-1.23-3.912-5.888-6.328-11.073-6.328-6.24 0-10.722 2.989-10.809 7.515-.088 10.061 15.774 5.976 15.774 10.986 0 1.757-1.712 2.769-4.7 2.769-2.857 0-5.01-1.143-5.933-3.121l-6.063 1.01c1.228 4.087 5.711 6.851 11.949 6.851z" data-name="Path 1070"/><path d="M79.467 52.76l-1.25-2.4h-.049v8.675h-1.756V47.691h2.049l3.7 6.272 1.25 2.4h.049v-8.676h1.754v11.341h-2.042zm27.527-3.444h-3.38v-1.625h8.6v1.625h-3.38v9.715h-1.836zm10.135 9.715v-1.494h1.543v-8.352h-1.543v-1.5h4.939v1.5h-1.559v8.352h1.559v1.494zm9.769-5.67c0-3.819 1.934-5.866 4.891-5.866s4.891 2.047 4.891 5.866-1.934 5.866-4.891 5.866-4.89-2.047-4.89-5.866zm7.816.894v-1.786c0-2.064-1.169-3.332-2.925-3.332s-2.925 1.268-2.925 3.332v1.786c0 2.063 1.171 3.331 2.925 3.331s2.926-1.268 2.926-3.331zm10.753-1.5l-1.25-2.4h-.049v8.675h-1.754V47.691h2.047l3.7 6.272 1.252 2.4h.048v-8.676h1.754v11.341h-2.047zm26.253 6.272V47.691h1.837v9.717h4.614v1.624zm-73.147 0h1.917l-3.867-11.341h-2.306l-3.868 11.341h1.87l.92-2.853h4.384zm-3.184-9.65h.081l1.7 5.221h-3.49zm69.185 9.65h1.917l-3.867-11.341h-2.306l-3.868 11.341h1.869l.921-2.853h4.384zm-3.184-9.65h.081l1.7 5.221h-3.489zm29.254 9.65V47.691h1.839v9.717h4.613v1.624zm26.5-11.341h5.021a2.775 2.775 0 013.022 2.924 2.138 2.138 0 01-1.966 2.406v.1a2.5 2.5 0 012.372 2.648 3.051 3.051 0 01-2.924 3.265h-5.525zm1.837 4.794h2.842a1.271 1.271 0 001.43-1.349v-.522a1.271 1.271 0 00-1.43-1.347h-2.84zm0 4.971h3.152a1.362 1.362 0 001.526-1.446v-.552a1.363 1.363 0 00-1.526-1.446h-3.15zm11.784-4.094c0-3.819 1.934-5.866 4.891-5.866s4.891 2.047 4.891 5.866-1.934 5.866-4.891 5.866-4.891-2.043-4.891-5.862zm7.816.894v-1.786c0-2.064-1.169-3.332-2.925-3.332s-2.925 1.268-2.925 3.332v1.786c0 2.063 1.171 3.331 2.925 3.331s2.927-1.264 2.927-3.327zm9.549 4.777h-1.837V47.691h4.89a3.108 3.108 0 013.283 3.412 3 3 0 01-2.211 3.152l2.454 4.777h-2.049l-2.275-4.581h-2.257zm2.924-6.124a1.318 1.318 0 001.479-1.414v-.781a1.318 1.318 0 00-1.479-1.414h-2.924v3.609zm25.159-3.591h-3.38v-1.625h8.6v1.625h-3.38v9.715h-1.836zm9.743 4.045c0-3.819 1.934-5.866 4.891-5.866s4.889 2.047 4.889 5.866-1.933 5.866-4.889 5.866-4.892-2.044-4.892-5.863zm7.815.894v-1.786c0-2.064-1.169-3.332-2.924-3.332s-2.925 1.268-2.925 3.332v1.786c0 2.063 1.169 3.331 2.925 3.331s2.922-1.265 2.922-3.328zm9.549 4.777h-1.837V47.691h4.891a3.107 3.107 0 013.281 3.412 3 3 0 01-2.209 3.152l2.454 4.777h-2.047l-2.276-4.581h-2.259zm2.925-6.124a1.319 1.319 0 001.479-1.414v-.781a1.319 1.319 0 00-1.479-1.414h-2.925v3.609zm11.749 6.124v-4.468l-3.9-6.873h2.1l2.763 5.053h.049l2.744-5.053h2.017l-3.933 6.841v4.5zm-108.011 0h1.917l-3.867-11.341h-2.306l-3.868 11.341h1.869l.921-2.853h4.384zm-3.184-9.65h.084l1.7 5.221h-3.5zm60.995 9.65h1.915l-3.867-11.341h-2.306l-3.867 11.341h1.869l.92-2.853h4.384zm-3.186-9.65h.083l1.7 5.221h-3.49z" data-name="Path 1071"/><path d="M20.702 2.069a32.034 32.034 0 0135.839 9.344c-.362-.046-4.527-.5-11.619 1.707-9.851-8.47-18.374-10.921-24.22-11.051zm9.938 48.94a59.144 59.144 0 01-9.763-7.926 65.839 65.839 0 01-5.508-6.2c-5.223 6.33-7.242 12.065-5.41 14.821 2.251 3.377 10.371 3.593 20.682-.691zm11.2-36.823C30.999 6.276 18.47 2.702 13.033 8.158c-3.412 3.423-3.975 11.849 3 22.722a77.607 77.607 0 0111.457-9.147 72.65 72.65 0 0114.347-7.547zm-28.65 19.7c-6.68-9.883-7.228-17.973-6.431-21.511a32.014 32.014 0 00-1.155 37.76c-.27-2.487.873-8.576 7.582-16.253zm45.144-20.135c-.258-.048-3.948-.668-10.947 1.589.522.493 1.046 1 1.575 1.523a36.351 36.351 0 016.874 9.194.835.835 0 01-.327 1.134.845.845 0 01-1.136-.327 43.518 43.518 0 00-5.621-6.78 59.47 59.47 0 00-4.155-3.754 79.044 79.044 0 00-15.044 8.04 69.065 69.065 0 00-11.468 9.479 70.659 70.659 0 006.941 7.97 56.587 56.587 0 009.272 7.528 73.924 73.924 0 0011.464-7.142 3.833 3.833 0 111.814 1.575 96.784 96.784 0 01-10.634 7.147c6.127 3.39 12.184 4.853 17.32 4.175a32.006 32.006 0 004.072-41.35zm-24.781 39c-10.1 5.092-17.34 5.54-21.279 4.5a32.017 32.017 0 0038.906.487c-2.627.022-9.304-.425-17.63-4.995z" data-name="Path 1072"/></g></svg>